<svg id="Groupe_6089" data-name="Groupe 6089" xmlns="http://www.w3.org/2000/svg" width="66.213" height="49.365" viewBox="0 0 66.213 49.365">
  <g id="Groupe_32" data-name="Groupe 32" transform="translate(0 31.724)">
    <path id="Tracé_33" data-name="Tracé 33" d="M479.89,446.4a7.3,7.3,0,0,1,2.239,1.059,6.368,6.368,0,0,1,1.683,1.763,7.316,7.316,0,0,1,.987,2.446h-3.9a3.1,3.1,0,0,0-.429-.858,3.028,3.028,0,0,0-.743-.729,3.961,3.961,0,0,0-1.079-.518,4.73,4.73,0,0,0-1.439-.2,4.292,4.292,0,0,0-1.706.341,3.686,3.686,0,0,0-1.381,1.023,5.025,5.025,0,0,0-.916,1.706,7.561,7.561,0,0,0-.337,2.364,6.272,6.272,0,0,0,1.207,4.14,3.978,3.978,0,0,0,3.2,1.434,6.484,6.484,0,0,0,1.357-.141,3.589,3.589,0,0,0,1.2-.482,2.651,2.651,0,0,0,.859-.882,2.607,2.607,0,0,0,.325-1.364v-.33h-4.062v-3.293h8.031v9.5h-3.041l-.115-1.882a4.791,4.791,0,0,1-2.078,1.658,7.956,7.956,0,0,1-3.075.53,8.549,8.549,0,0,1-3.343-.624,6.926,6.926,0,0,1-2.518-1.776,7.947,7.947,0,0,1-1.589-2.8,11.485,11.485,0,0,1-.557-3.692,10.048,10.048,0,0,1,.626-3.646,7.837,7.837,0,0,1,1.752-2.752,7.681,7.681,0,0,1,2.7-1.74,10.205,10.205,0,0,1,6.139-.259Z" transform="translate(-468.668 -446.051)" fill="#000000"/>
    <path id="Tracé_34" data-name="Tracé 34" d="M500.168,461.749a6.658,6.658,0,0,1-1.5,1.329,6.14,6.14,0,0,1-1.764.777,7.345,7.345,0,0,1-1.869.246,8.073,8.073,0,0,1-2.785-.458,6.186,6.186,0,0,1-2.159-1.318,5.843,5.843,0,0,1-1.4-2.105,7.543,7.543,0,0,1-.5-2.822,6.836,6.836,0,0,1,.533-2.74,6.291,6.291,0,0,1,1.439-2.093,6.412,6.412,0,0,1,2.124-1.329,7.118,7.118,0,0,1,2.589-.47,6.607,6.607,0,0,1,2.785.564,5.8,5.8,0,0,1,2.078,1.588,6.666,6.666,0,0,1,1.253,2.434,9.336,9.336,0,0,1,.313,3.1h-9.261a2.97,2.97,0,0,0,.3,1.176,2.423,2.423,0,0,0,.661.812,2.994,2.994,0,0,0,.894.482,3.146,3.146,0,0,0,1.021.164,3.947,3.947,0,0,0,1.788-.352,2.358,2.358,0,0,0,1.021-.918h3.528A6.424,6.424,0,0,1,500.168,461.749Zm-7.113-7.456a2.476,2.476,0,0,0-.963,1.811H497.5a2.267,2.267,0,0,0-.789-1.788,2.865,2.865,0,0,0-1.834-.588A3.078,3.078,0,0,0,493.055,454.293Z" transform="translate(-470.601 -446.461)" fill="#000000"/>
    <path id="Tracé_35" data-name="Tracé 35" d="M511.113,453.821a2.4,2.4,0,0,0-1.578-.447,2.365,2.365,0,0,0-1.52.471,2.007,2.007,0,0,0-.708,1.388h-3.574a4.218,4.218,0,0,1,.51-1.706,4.669,4.669,0,0,1,1.231-1.435,6.146,6.146,0,0,1,1.891-.988,7.937,7.937,0,0,1,2.5-.364,8.865,8.865,0,0,1,2.39.294,4.441,4.441,0,0,1,1.764.93,3.894,3.894,0,0,1,1.079,1.646,7,7,0,0,1,.336,2.446l-.046,2.752v1.318q0,.705.034,1.387t.093,1.282a7.84,7.84,0,0,0,.151,1H511.9l-.046-1.528a3.744,3.744,0,0,1-1.776,1.423,6.754,6.754,0,0,1-2.426.412,5.322,5.322,0,0,1-1.67-.258,4.271,4.271,0,0,1-1.381-.741,3.38,3.38,0,0,1-1.265-2.716,3.1,3.1,0,0,1,.615-1.952,4.552,4.552,0,0,1,1.717-1.318,10.81,10.81,0,0,1,2.635-.8,32.418,32.418,0,0,1,3.342-.423V455.4A1.962,1.962,0,0,0,511.113,453.821Zm-1.195,4.563a7.031,7.031,0,0,0-1.4.33,2.319,2.319,0,0,0-.9.552,1.22,1.22,0,0,0,.186,1.822,2.053,2.053,0,0,0,1.253.377,3.832,3.832,0,0,0,1.068-.142,2.031,2.031,0,0,0,.847-.482,2.335,2.335,0,0,0,.569-.917,4.286,4.286,0,0,0,.209-1.447v-.306Q510.742,458.266,509.918,458.383Z" transform="translate(-472.1 -446.458)" fill="#000000"/>
    <path id="Tracé_36" data-name="Tracé 36" d="M525.686,454.826c-.154-.008-.317-.012-.487-.012a3.225,3.225,0,0,0-2.1.588,2.569,2.569,0,0,0-.708,2.07v6.35h-3.829V451.168h3.691v2.4a4.216,4.216,0,0,1,1.253-1.787,3.531,3.531,0,0,1,2.159-.706h.279a1.844,1.844,0,0,1,.3.024v3.787C526.027,454.853,525.841,454.833,525.686,454.826Z" transform="translate(-473.607 -446.488)" fill="#000000"/>
    <path id="Tracé_37" data-name="Tracé 37" d="M534.9,460.61a2.58,2.58,0,0,0,.975-.776,3.709,3.709,0,0,0,.627-1.3,6.488,6.488,0,0,0,.2-1.87,4.868,4.868,0,0,1-1.5.9,5.893,5.893,0,0,1-2.147.341,5.627,5.627,0,0,1-2.181-.435,5.541,5.541,0,0,1-1.834-1.235,5.978,5.978,0,0,1-1.718-4.28,5.921,5.921,0,0,1,.487-2.434,5.434,5.434,0,0,1,1.358-1.87,5.95,5.95,0,0,1,2.089-1.188,8.239,8.239,0,0,1,2.657-.412,6.79,6.79,0,0,1,3.076.646,5.74,5.74,0,0,1,2.112,1.788,7.7,7.7,0,0,1,1.206,2.682,13.638,13.638,0,0,1,.383,3.3,14.963,14.963,0,0,1-.406,3.551A8.706,8.706,0,0,1,539,460.951a6.355,6.355,0,0,1-2.24,2,6.827,6.827,0,0,1-3.3.741,7.625,7.625,0,0,1-2.553-.388,5.275,5.275,0,0,1-1.822-1.058,4.653,4.653,0,0,1-1.125-1.565,5.637,5.637,0,0,1-.465-1.9h3.761a2.131,2.131,0,0,0,.823,1.646,2.805,2.805,0,0,0,1.567.447A2.963,2.963,0,0,0,534.9,460.61Zm1-10.867a2.519,2.519,0,0,0-1.985-.823,2.447,2.447,0,0,0-1.96.823,3.768,3.768,0,0,0,0,4.4,2.417,2.417,0,0,0,1.96.847,2.539,2.539,0,0,0,1.985-.812,3.728,3.728,0,0,0,0-4.434Z" transform="translate(-474.474 -446.051)" fill="#000000"/>
  </g>
  <path id="Tracé_38" data-name="Tracé 38" d="M493.16,437.683V411.307h26.028Z" transform="translate(-471.093 -411.307)" fill="#000000"/>
</svg>
