<svg width="97" height="96" viewBox="0 0 97 96" fill="none" xmlns="http://www.w3.org/2000/svg">
<g clip-path="url(#clip0_4314_1110)">
<path d="M49.1439 0C35.6212 0 24.6591 10.9035 24.6591 24.3538C24.6591 31.8643 28.0789 38.5799 33.4528 43.047L49.1439 58.6541L64.835 43.047C70.2089 38.5799 73.6287 31.8643 73.6287 24.3538C73.6287 10.9035 62.6666 0 49.1439 0ZM58.2633 32.9853L49.1439 23.9147L40.0266 32.9832C37.8775 30.7369 36.5576 27.6977 36.5576 24.3538C36.5576 17.4379 42.1929 11.8327 49.1439 11.8327C56.0949 11.8327 61.7323 17.4379 61.7323 24.3538C61.7323 27.6998 60.4146 30.7369 58.2633 32.9853Z" fill="url(#paint0_linear_4314_1110)"/>
<path d="M11.2264 71.4609H15.7861L26.5125 95.4652H20.4787L18.6681 91.0642H8.34447L6.53388 95.4652H0.5L11.2264 71.4609ZM10.0522 86.9317H16.9582L13.5063 78.5303L10.0544 86.9317H10.0522Z" fill="url(#paint1_linear_4314_1110)"/>
<path d="M31.6058 71.4609V77.4625H36.6347V81.7293H31.6058V86.4628C31.6058 87.1512 31.7408 87.8012 32.0086 88.4129C32.2764 89.0246 32.6343 89.5531 33.0821 89.9964C33.5278 90.4418 34.0592 90.7956 34.6741 91.0642C35.2891 91.3306 35.9426 91.4648 36.6347 91.4648V96.0001H35.9641C34.5777 96.0001 33.3092 95.7508 32.1586 95.2499C31.008 94.7491 30.018 94.0671 29.1931 93.1997C28.366 92.3323 27.7232 91.3221 27.2646 90.1648C26.8061 89.0096 26.5768 87.7757 26.5768 86.4649V71.4609H31.6058Z" fill="url(#paint2_linear_4314_1110)"/>
<path d="M42.2979 69.9285C42.7007 69.9285 43.0736 70.0073 43.4207 70.1608C43.7678 70.3164 44.0678 70.5231 44.3249 70.7767C44.582 71.0325 44.7877 71.333 44.9442 71.6761C45.1006 72.0214 45.1799 72.3922 45.1799 72.7929C45.1799 73.1935 45.1006 73.5644 44.9442 73.9096C44.7877 74.2549 44.5799 74.5597 44.3249 74.8261C44.0699 75.0925 43.7657 75.2992 43.4207 75.442C43.0736 75.5869 42.7007 75.6594 42.2979 75.6594C41.4944 75.6594 40.8109 75.3823 40.2538 74.8261C39.6945 74.2698 39.416 73.5921 39.416 72.7929C39.416 72.3922 39.4888 72.0214 39.6345 71.6761C39.7802 71.3308 39.9859 71.0325 40.2538 70.7767C40.5216 70.521 40.828 70.3164 41.1751 70.1608C41.5223 70.0052 41.8951 69.9285 42.2979 69.9285ZM39.7845 77.4624H44.8135V95.4672H39.7845V77.4624Z" fill="url(#paint3_linear_4314_1110)"/>
<path d="M48.4668 95.4672V71.4629H53.4936V84.3655L59.3261 77.4645H65.3599L58.6897 85.1327L66.9348 95.4693H60.8345L53.4936 85.9682V95.4693H48.4668V95.4672Z" fill="url(#paint4_linear_4314_1110)"/>
<path d="M71.4281 69.9285C71.8309 69.9285 72.2038 70.0073 72.5509 70.1608C72.898 70.3164 73.198 70.5231 73.4551 70.7767C73.7122 71.0325 73.9179 71.333 74.0744 71.6761C74.2308 72.0214 74.3079 72.3922 74.3079 72.7929C74.3079 73.1935 74.2286 73.5644 74.0744 73.9096C73.9179 74.2549 73.7101 74.5597 73.4551 74.8261C73.198 75.0925 72.8959 75.2992 72.5509 75.442C72.2038 75.5869 71.8309 75.6594 71.4281 75.6594C70.6246 75.6594 69.9411 75.3823 69.384 74.8261C68.8247 74.2698 68.5462 73.5921 68.5462 72.7929C68.5462 72.3922 68.619 72.0214 68.7647 71.6761C68.9104 71.3308 69.1161 71.0325 69.384 70.7767C69.6518 70.521 69.9582 70.3164 70.3053 70.1608C70.6524 70.0052 71.0253 69.9285 71.4281 69.9285ZM68.9147 77.4624H73.9437V95.4672H68.9147V77.4624Z" fill="url(#paint5_linear_4314_1110)"/>
<path d="M86.545 76.9297C87.9291 76.9297 89.2255 77.179 90.434 77.6799C91.6403 78.1807 92.6903 78.8627 93.5859 79.7302C94.4794 80.5976 95.1887 81.6078 95.7136 82.765C96.2386 83.9202 96.5021 85.1542 96.5021 86.4649V95.4673H91.8096V93.2337C91.2289 94.0777 90.479 94.7512 89.564 95.2499C88.647 95.7508 87.642 96.0001 86.5471 96.0001C85.1843 96.0001 83.8923 95.7508 82.6752 95.2499C81.456 94.7491 80.4018 94.0671 79.5083 93.1996C78.6148 92.3322 77.9034 91.322 77.3806 90.1647C76.8556 89.0096 76.592 87.7756 76.592 86.4649C76.592 85.1542 76.8535 83.9202 77.3806 82.765C77.9055 81.6099 78.6148 80.5976 79.5083 79.7302C80.4018 78.8627 81.4582 78.1807 82.6752 77.6799C83.8923 77.179 85.1843 76.9297 86.5471 76.9297H86.545ZM86.6457 91.4669C87.3378 91.4669 87.9913 91.3327 88.6062 91.0663C89.2212 90.7999 89.7505 90.4439 90.1983 89.9985C90.6461 89.5531 91.0018 89.0267 91.2718 88.415C91.5396 87.8033 91.6746 87.1533 91.6746 86.4649C91.6746 85.7765 91.5418 85.1265 91.2718 84.5148C91.0039 83.9031 90.6461 83.3767 90.1983 82.9313C89.7505 82.488 89.2212 82.1321 88.6062 81.8635C87.9913 81.5971 87.3378 81.4629 86.6457 81.4629C85.9536 81.4629 85.2979 81.5971 84.6851 81.8635C84.0701 82.1299 83.5387 82.4859 83.093 82.9313C82.6474 83.3767 82.2895 83.9031 82.0195 84.5148C81.7517 85.1265 81.6167 85.7765 81.6167 86.4649C81.6167 87.1533 81.7496 87.8033 82.0195 88.415C82.2874 89.0267 82.6452 89.5552 83.093 89.9985C83.5387 90.4439 84.0701 90.7977 84.6851 91.0663C85.3 91.3327 85.9536 91.4669 86.6457 91.4669Z" fill="url(#paint6_linear_4314_1110)"/>
</g>
<defs>
<linearGradient id="paint0_linear_4314_1110" x1="39.0359" y1="-30.2188" x2="125.285" y2="26.3201" gradientUnits="userSpaceOnUse">
<stop stop-color="#AC4CFF"/>
<stop offset="1" stop-color="#908AFF"/>
</linearGradient>
<linearGradient id="paint1_linear_4314_1110" x1="8.13693" y1="59.0938" x2="46.1323" y2="91.4228" gradientUnits="userSpaceOnUse">
<stop stop-color="#AC4CFF"/>
<stop offset="1" stop-color="#908AFF"/>
</linearGradient>
<linearGradient id="paint2_linear_4314_1110" x1="29.5297" y1="58.8182" x2="52.4799" y2="66.2041" gradientUnits="userSpaceOnUse">
<stop stop-color="#AC4CFF"/>
<stop offset="1" stop-color="#908AFF"/>
</linearGradient>
<linearGradient id="paint3_linear_4314_1110" x1="41.1082" y1="56.7708" x2="55.1805" y2="59.2645" gradientUnits="userSpaceOnUse">
<stop stop-color="#AC4CFF"/>
<stop offset="1" stop-color="#908AFF"/>
</linearGradient>
<linearGradient id="paint4_linear_4314_1110" x1="53.8888" y1="59.0947" x2="87.9619" y2="79.676" gradientUnits="userSpaceOnUse">
<stop stop-color="#AC4CFF"/>
<stop offset="1" stop-color="#908AFF"/>
</linearGradient>
<linearGradient id="paint5_linear_4314_1110" x1="70.2377" y1="56.7708" x2="84.3052" y2="59.2627" gradientUnits="userSpaceOnUse">
<stop stop-color="#AC4CFF"/>
<stop offset="1" stop-color="#908AFF"/>
</linearGradient>
<linearGradient id="paint6_linear_4314_1110" x1="82.4374" y1="67.1045" x2="112.423" y2="91.6855" gradientUnits="userSpaceOnUse">
<stop stop-color="#AC4CFF"/>
<stop offset="1" stop-color="#908AFF"/>
</linearGradient>
<clipPath id="clip0_4314_1110">
<rect width="96" height="96" fill="white" transform="translate(0.5)"/>
</clipPath>
</defs>
</svg>
