<svg width="404" height="131" viewBox="0 0 404 131" fill="none" xmlns="http://www.w3.org/2000/svg">
<g clip-path="url(#clip0_1_2)">
<path d="M89.9992 46C83.8564 46 78.2126 46 73.2791 46C72.7803 37.2648 72.9675 28.7193 71.6087 20.4272C70.4896 13.5976 63.3161 9.08412 56.1976 9.00379C54.0345 8.97938 51.8709 9 49.1518 9C49.1518 21.2371 49.1518 33.43 49.1518 45.8054C37.2009 45.8054 25.8061 45.8054 14 45.8054C14 37.8478 13.7978 30.0634 14.0823 22.2968C14.2325 18.195 13.5012 14.899 9.97314 12.4374C7.55027 10.7469 5.32581 8.77202 3.01266 6.92425C3.33806 6.40947 3.66345 5.89468 3.98884 5.37989C5.17445 5.25327 6.35995 5.01748 7.54569 5.01623C28.6856 4.99389 49.837 4.5886 70.9607 5.17544C81.3547 5.46419 91.9144 6.85277 100.964 13.0083C111.373 20.0891 113.497 32.7897 107.882 43.9984C107.354 45.0525 105.343 45.8379 103.976 45.9105C99.4947 46.1485 94.9925 46 89.9992 46Z" fill="white"/>
<path d="M181.253 10.7471C179.361 9.19582 177.73 7.90507 176.099 6.61431C176.447 6.07621 176.795 5.53811 177.143 5C178.544 5 179.945 5 181.346 5C198.007 5 214.686 4.52371 231.324 5.15301C244.277 5.64295 257.094 8.07812 267.887 16.0517C277.742 23.3328 284.702 32.6574 286.222 45.6887C274.056 45.6887 262.186 45.6887 250.298 45.6887C249.238 36.1239 248.191 26.6691 242.873 18.3811C238.295 11.2477 231.307 9.2942 223.026 8.90831C223.026 21.383 223.026 33.4737 223.026 45.7787C210.914 45.7787 199.179 45.7787 187 45.7787C187 38.3767 186.533 31.0561 187.15 23.8281C187.632 18.1847 185.879 14.1905 181.253 10.7471Z" fill="white"/>
<path d="M187 93.0685C187 90.5931 187 88.6096 187 86.3135C198.894 86.3135 210.628 86.3135 222.768 86.3135C222.768 97.5479 222.768 108.952 222.768 120.262C232.224 122.382 242.907 117.362 245.94 106.667C247.82 100.038 249.193 93.2645 250.875 86.2158C261.698 86.2158 273.118 86.2158 284.752 86.2158C279.375 102.007 269.259 113.458 253.929 119.912C244.56 123.856 234.635 125.251 224.406 125.065C210.255 124.807 196.094 125 181.938 125C180.359 125 178.78 125 175.955 125C179.418 121.767 182.192 119.601 184.397 116.96C185.723 115.372 186.77 113.078 186.885 111.041C187.213 105.231 187 99.3895 187 93.0685Z" fill="white"/>
<path d="M330.083 5C339.068 5 347.569 5.14316 356.061 4.92299C359.067 4.84506 360.195 5.85788 361.095 8.6785C365.04 21.0414 369.293 33.3057 373.496 45.7884C361.152 45.7884 348.783 45.7884 336.424 45.7884C335.456 42.8776 334.504 40.0123 333.018 35.543C331.391 38.0598 329.76 39.5477 329.442 41.2771C328.626 45.7121 326.283 46.8898 321.292 45.416C331.784 32.2409 328.05 18.8025 321.094 5C324.657 5 327.127 5 330.083 5Z" fill="white"/>
<path d="M130.03 5C144.172 5 157.819 5 172.852 5C171.434 7.14436 170.773 8.88672 169.522 9.90579C164.401 14.0788 162.309 19.1523 162.881 25.854C163.431 32.2949 163 38.8194 163 45.6534C151.511 45.6534 140.111 45.6534 128 45.6534C128 38.0262 127.767 30.1075 128.095 22.212C128.268 18.0495 127.237 14.9672 123.944 12.3348C121.803 10.6229 120.177 8.26679 118.32 6.19926C118.614 5.79951 118.907 5.39976 119.201 5C122.646 5 126.09 5 130.03 5Z" fill="white"/>
<path d="M65.3688 86C76.3223 86 86.8136 86 97.3911 86C104.092 98.7849 110.762 111.509 117.707 124.759C99.9525 124.759 83.0954 124.759 64.9014 124.759C67.0495 122.54 68.2933 120.848 69.9084 119.662C74.6702 116.166 74.7533 112.379 71.9237 107.416C68.1294 100.76 65.0126 93.7183 61.3248 86.277C63.0694 86.1421 63.988 86.0711 65.3688 86Z" fill="white"/>
<path d="M352.678 124.996C351.89 124.436 351.104 123.628 351.255 123.369C351.74 122.538 352.577 121.916 353.271 121.205C360.572 113.721 360.559 113.726 356.545 104.017C355.324 101.064 354.099 98.1065 353.055 95.0892C352.059 92.2123 351.295 89.2548 350.331 86.0006C361.84 86.0006 373.239 85.9251 384.633 86.1119C385.832 86.1316 387.687 87.4539 388.087 88.5805C392.307 100.466 396.293 112.435 400.554 125C384.27 125 368.69 125 352.678 124.996Z" fill="white"/>
<path d="M163 98.0094C163 99.1705 163.061 99.8427 162.991 100.501C162.107 108.726 162.919 116.273 170.728 121.32C171.676 121.932 172.094 123.365 172.945 124.714C154.415 124.714 136.311 124.714 117.822 124.714C119.311 122.837 120.227 120.867 121.771 119.873C128.644 115.449 128.318 108.764 128.041 101.904C127.834 96.7826 128 91.6462 128 86.2606C139.66 86.2606 151.052 86.2606 163 86.2606C163 89.981 163 93.7473 163 98.0094Z" fill="white"/>
<path d="M14 98.0094C14 93.8724 14 90.2311 14 86.2957C25.5885 86.2957 36.9822 86.2957 49 86.2957C49 93.4033 49.2206 100.662 48.9121 107.898C48.7438 111.845 49.6545 114.8 52.7581 117.403C54.9154 119.212 56.4488 121.765 58.8014 124.648C40.0335 124.648 22.2027 124.648 3.24194 124.648C5.69836 122.044 7.53129 119.646 9.80788 117.794C13.1865 115.045 14.5506 111.815 14.0636 107.483C13.7311 104.526 14 101.5 14 98.0094Z" fill="white"/>
<path d="M329.68 125C315.567 125 301.916 125 287.228 125C293.031 111.645 298.567 98.9059 304.09 86.1953C310.059 86.1953 315.836 86.1953 321.892 86.1953C321.788 100.307 325.803 112.991 334.957 125C332.607 125 331.374 125 329.68 125Z" fill="white"/>
</g>
<defs>
<clipPath id="clip0_1_2">
<rect width="404" height="131" fill="white"/>
</clipPath>
</defs>
</svg>
